<?xml version="1.0" encoding="utf-8"?>
<!-- Generator: Adobe Illustrator 23.0.4, SVG Export Plug-In . SVG Version: 6.00 Build 0)  -->
<svg version="1.1" id="Layer_1" xmlns="http://www.w3.org/2000/svg" xmlns:xlink="http://www.w3.org/1999/xlink" x="0px" y="0px"
	 viewBox="0 0 32 32" style="enable-background:new 0 0 32 32;" xml:space="preserve">
<style type="text/css">
	.st0{fill:#0FB4FE;}
	.st1{fill:#0FB4FE;stroke:#FFFFFF;stroke-width:0.25;stroke-miterlimit:10;}
	.st2{fill:#0FB4FE;stroke:#FFFFFF;stroke-width:0.75;stroke-miterlimit:10;}
</style>
<rect x="18.9" y="10.2" transform="matrix(6.123234e-17 -1 1 6.123234e-17 2.1232 37.6054)" class="st0" width="2" height="15"/>
<rect x="14.4" y="2.6" class="st0" width="2.1" height="17.6"/>
<polygon class="st1" points="23.7,11.9 24.6,15.2 28.2,16.1 24.6,16.9 23.7,20.3 22.8,16.9 19.2,16.1 22.8,15.2 "/>
<polygon class="st2" points="19.2,2.3 21,9 28.2,10.7 21,12.3 19.2,19 17.4,12.3 10.3,10.7 17.4,9 "/>
<g>
	<path class="st0" d="M16,2c7.7,0,14,6.3,14,14s-6.3,14-14,14S2,23.7,2,16S8.3,2,16,2 M16,0C7.2,0,0,7.2,0,16s7.2,16,16,16
		s16-7.2,16-16S24.8,0,16,0L16,0z"/>
</g>
<polygon class="st1" points="24.2,1.1 25.1,4.1 28.3,4.9 25.1,5.6 24.2,8.6 23.4,5.6 20.2,4.9 23.4,4.1 "/>
</svg>
